General
Complete name                    : City of Ember.mkv
Format                           : Matroska
File size                        : 706 MiB
Duration                         : 1h 30mn
Overall bit rate                 : 1 087 Kbps
Writing application              : HandBrake 0.9.4

Video
ID                               : 1
Format                           : AVC
Duration                         : 1h 30mn
Bit rate                         : 873 Kbps
Nominal bit rate                 : 879 Kbps
Width                            : 720 pixels
Height                           : 426 pixels
Display aspect ratio             : 2.40:1
Frame rate                       : 25.000 fps
Resolution                       : 8 bits
Colorimetry                      : 4:2:0
Scan type                        : Progressive
Bits/(Pixel*Frame)               : 0.114
Stream size                      : 567 MiB (80%)
Writing library                  : x264 core 79


Audio
ID                               : 2
Format                           : AC-3
Format/Info                      : Audio Coding 3
Codec ID                         : A_AC3
Duration                         : 1h 30mn
Bit rate mode                    : Constant
Bit rate                         : 192 Kbps
Channel(s)                       : 2 channels
Channel positions                : Front: L R
Sampling rate                    : 48.0 KHz
Stream size                      : 125 MiB (18%)
Language                         : English

Text #1
Language                         : Swedish

Text #2
Language                         : Norwegian

Text #3
Language                         : Danish

Text #4
Language                         : Finnish

